<?xml version="1.0" standalone="no"?>
<!DOCTYPE svg PUBLIC "-//W3C//DTD SVG 1.1//EN" "http://www.w3.org/Graphics/SVG/1.1/DTD/svg11.dtd">
<svg xmlns="http://www.w3.org/2000/svg">
<metadata>Copyright (C) 2018 by original authors @ fontello.com</metadata>
<defs>
<font id="som" horiz-adv-x="1000" >
<font-face font-family="som" font-weight="400" font-stretch="normal" units-per-em="1000" ascent="850" descent="-150" />
<missing-glyph horiz-adv-x="1000" />
<glyph glyph-name="filtrolleno" unicode="&#xe800;" d="M746 660h-540l-135 142h-71l381-400v-528a24 24 0 0 1 24-24 24 24 0 0 1 11 3h0a24 24 0 0 1 12 16l138 181a24 24 0 0 1 5 14v339l381 399h-71z m183 190h-905a24 24 0 0 1-24-24v-24h952v24a24 24 0 0 1-23 24z" horiz-adv-x="952" />

<glyph glyph-name="ir" unicode="&#xe801;" d="M1231 394l-514 428c-51 49-92 32-92-36v-248h-500a125 125 0 0 1-125-125v-125a125 125 0 0 1 125-125h500v-250c0-69 41-85 92-36l514 429a60 60 0 0 1 0 88z m-544-169h-562a63 63 0 0 0-62 63v125a63 63 0 0 0 62 62h562z m0-295v840l496-420z" horiz-adv-x="1250" />

<glyph glyph-name="lupa" unicode="&#xe802;" d="M275 685a298 298 0 0 1-128-149c33 41 84 83 158 128a577 577 0 0 0 166 57 299 299 0 0 1-196-36z m710-749l-226 226a427 427 0 1 1-71-71l226-226a50 50 0 0 1 71 71z m-372 164a375 375 0 1 0 137 512 375 375 0 0 0-137-512z" horiz-adv-x="1000" />

<glyph glyph-name="notificacion" unicode="&#xe803;" d="M885 751h-770a115 115 0 0 1-115-115v-570a115 115 0 0 1 115-115h770a115 115 0 0 1 115 115h0v109c0-8-3-40-8-46l-36-30a15 15 0 0 1-6-11v-21a65 65 0 0 0-65-66h-57a15 15 0 0 1-9-3l-41-34c-23-22-81-14-81 17v6a15 15 0 0 1-15 15l-582-1a50 50 0 0 0-50 50v557a15 15 0 0 0 26 10l353-353a99 99 0 0 1 22-16 15 15 0 0 1 17 1c14 11 41 29 53 29h60a16 16 0 0 1 10 4q2 2 3 3l330 332a15 15 0 0 0 26-10l1-348a15 15 0 0 1 5-12l36-30c6-6 8-36 8-43v461a115 115 0 0 1-115 115z m-350-451a50 50 0 0 0-70 0l-375 375a15 15 0 0 0 10 26h800a15 15 0 0 0 11-26z m431-109l-204 170c-21 20-37 13-37-14v-99h-199c-27 0-43-22-43-49v-50c0-27 16-49 43-49h199v-99c0-28 16-34 37-15l204 170a24 24 0 0 1 2 34 5 5 0 0 1-2 1z m-202-141v87h-226c-12 0-21 9-21 19v36c0 10 9 18 21 18h226v87l164-123z" horiz-adv-x="1000" />

<glyph glyph-name="plus" unicode="&#xe804;" d="M975 375h-450v450a25 25 0 1 1-50 0v-450h-450a25 25 0 0 1 0-50h450v-450a25 25 0 1 1 50 0v450h450a25 25 0 1 1 0 50z" horiz-adv-x="1000" />

<glyph glyph-name="vista_colabora" unicode="&#xe805;" d="M500 318a163 163 0 1 1-163 163v0a163 163 0 0 1 163-163z m0 294a131 131 0 1 0-130-131 131 131 0 0 0 130 131z m294-294a98 98 0 1 1-98 98 98 98 0 0 1 98-98z m0 163a65 65 0 1 0-66-65h0a65 65 0 0 0 66 65z m0-163a211 211 0 0 1-100-25 360 360 0 0 0 31-21 179 179 0 0 0 241-117h34a212 212 0 0 1-206 163z m-294 0a327 327 0 0 1-320-261h34a294 294 0 0 0 572 0h34a327 327 0 0 1-320 261z m-225-46a360 360 0 0 0 31 21 212 212 0 0 1-306-138h34a179 179 0 0 0 241 117z m-69 46a98 98 0 1 1-97 98s0 0 0 0a98 98 0 0 1 97-98z m0 163a65 65 0 1 0-65-65h0a65 65 0 0 0 65 65h0z" horiz-adv-x="1000" />

<glyph glyph-name="vista_tecnico" unicode="&#xe806;" d="M544 294a278 278 0 1 1-277 278 278 278 0 0 1 277-278z m0 500a222 222 0 1 0-222-222 222 222 0 0 0 222 222z m0-500a556 556 0 0 1-544-444h57a500 500 0 0 0 975 0h57a556 556 0 0 1-545 444z" horiz-adv-x="1089" />

<glyph glyph-name="contabilidad1" unicode="&#xe807;" d="M1284 100v638s0 56-111 90a444 444 0 0 1-140 22c-315 0-391-195-391-195s-76 195-391 195a444 444 0 0 1-140-22c-111-34-111-90-111-90v-641c0-28 28-84 112-56 42 20 111 28 139 28 229 0 306-196 363-196h56c20 0 43 26 75 58a584 584 0 0 0 87 76 233 233 0 0 1 452 76c0 6 0 12 0 17z m-670-171s-98 196-363 196a750 750 0 0 1-195-28v642c27 27 112 56 174 56 309 0 384-196 384-196z m603 104a173 173 0 0 0-338 50c0 6 0 11 1 17a173 173 0 0 0 344-2c1-5 1-10 1-15a172 172 0 0 0-7-50z m11 202a233 233 0 0 1-409-152v-10c-106-58-149-144-149-144v670s75 195 384 195c62 0 147-29 174-56z m-91-54l-2-7a11 11 0 0 0-15-7 86 86 0 0 1-39 9 97 97 0 0 1-52-13 78 78 0 0 1-22-21 63 63 0 0 1-12-27h111a11 11 0 0 0 10-13h0a11 11 0 0 0-10-8h-114q0-4 0-7 0-12 0-14h104a11 11 0 0 0 10-13h0a11 11 0 0 0-10-8h-101q8-36 37-52a98 98 0 0 1 46-11 99 99 0 0 1 39 7 11 11 0 0 0 14-10v-7a11 11 0 0 0-7-10 138 138 0 0 0-43-6q-83 0-112 59a147 147 0 0 0-10 29h-15a11 11 0 0 0-10 13h0a11 11 0 0 0 10 8h12q-1 7-1 15v6h-11a11 11 0 0 0-10 13h0a11 11 0 0 0 10 8h13a102 102 0 0 0 60 74 150 150 0 0 0 64 14 125 125 0 0 0 49-9 11 11 0 0 0 7-12z" horiz-adv-x="1284" />

<glyph glyph-name="editar" unicode="&#xe808;" d="M998 546l-275 275a99 99 0 0 1-139 0l-438-437h0l-145-449a70 70 0 0 1 83-83l476 118 438 436a99 99 0 0 1 0 140z m-120 51l-438-438-102 103 437 437z m-260 189a50 50 0 0 0 70 0l52-52-437-437-87 87z m-572-848l33 100 116-116-106-26a36 36 0 0 0-43 42z m205-2l-155 155 85 258 37-37 308-309z m712 505l-402-403-86 86 438 438 50-51a50 50 0 0 0 0-70z" horiz-adv-x="1027" />

<glyph glyph-name="ejecutar" unicode="&#xe809;" d="M879 403l-784 435c-53 29-95 4-95-56v-865c0-60 42-85 94-56l785 437c52 29 52 76 0 105z m-825-498v891l798-446z" horiz-adv-x="918" />

<glyph glyph-name="equis" unicode="&#xe80a;" d="M997-98l-450 449 449 447a30 30 0 0 1 0 43 31 31 0 0 1-43 0l-449-446-447 446a31 31 0 0 1-43-43l447-446-452-450a30 30 0 0 1 0-43 31 31 0 0 1 43 0l452 450 450-450a31 31 0 0 1 43 43z" horiz-adv-x="1005" />

<glyph glyph-name="flujo_formderiv" unicode="&#xe80b;" d="M786-150h-711a75 75 0 0 0-75 75v850a75 75 0 0 0 75 75h711a75 75 0 0 0 75-75v-850a75 75 0 0 0-75-75z m-705 964a46 46 0 0 1-46-46v-836a46 46 0 0 1 46-46h699a46 46 0 0 1 45 46v836a46 46 0 0 1-45 46z m585-191h-174a22 22 0 0 0-22 22h0a22 22 0 0 0 22 22h174a22 22 0 0 0 22-22h0a22 22 0 0 0-22-22z m24-96h0a22 22 0 0 1-22 22h-174a22 22 0 0 1-22-22h0a22 22 0 0 1 22-22h174a22 22 0 0 1 22 22z m-1-122h0a22 22 0 0 1-22 23h-173a22 22 0 0 1-23-23h0a22 22 0 0 1 23-22h173a22 22 0 0 1 22 22z m0-144h0a22 22 0 0 1-22 22h-174a22 22 0 0 1-22-22h0a22 22 0 0 1 22-22h174a22 22 0 0 1 22 22z m1-118h0a22 22 0 0 1-22 22h-173a22 22 0 0 1-23-22h0a22 22 0 0 1 23-22h173a22 22 0 0 1 22 22z m1-122h0a22 22 0 0 1-22 22h-174a22 22 0 0 1-22-22h0a22 22 0 0 1 22-22h174a22 22 0 0 1 22 22z m-334-18h-172a53 53 0 0 0-52 52v172a53 53 0 0 0 52 52h172a53 53 0 0 0 53-52v-172a53 53 0 0 0-53-52z m-172 248a24 24 0 0 1-24-24v-172a24 24 0 0 1 24-24h172a24 24 0 0 1 24 24v172a24 24 0 0 1-24 24z m172 132h-172a53 53 0 0 0-52 52v172a53 53 0 0 0 52 53h172a53 53 0 0 0 53-53v-172a53 53 0 0 0-53-52z m-172 248a24 24 0 0 1-24-24v-172a24 24 0 0 1 24-24h172a24 24 0 0 1 24 24v172a24 24 0 0 1-24 24z m161-42a14 14 0 0 1-21 0l-91-92-12 13a14 14 0 1 1-21-19l20-23a14 14 0 0 1 12-6h1a14 14 0 0 1 12 6l100 100a14 14 0 0 1 0 21z" horiz-adv-x="860" />

<glyph glyph-name="filtrovacio" unicode="&#xe80c;" d="M381 421h50l-360 381h-71l381-400z m140 0h3v-357l-95-121v478h-48v-540a16 16 0 0 1 0-9 24 24 0 0 1 24-22h2a13 13 0 0 1 12 4l2 2a24 24 0 0 1 5 7l141 187h0a24 24 0 0 1 4 14v339l381 399h-71z m408 429h-905a24 24 0 0 1-24-24v-24h952v24a24 24 0 0 1-23 24z" horiz-adv-x="952" />

<glyph glyph-name="filtro_validar" unicode="&#xe80d;" d="M928 258a217 217 0 1 1-79-296 217 217 0 0 1 79 296z m-101-258a173 173 0 1 0 64 236 173 173 0 0 0-64-236z m21 247l-162-162-65 64a16 16 0 0 1-22 0 16 16 0 0 1 0-21l75-75 0-1a16 16 0 0 1 22 0l0 1 174 172a16 16 0 0 1 0 22 16 16 0 0 1-22 0z m-467 174h50l-360 381h-71l381-400z m140 0h3v-357l-95-121v478h-48v-540a16 16 0 0 1 0-9 24 24 0 0 1 24-22h2a13 13 0 0 1 12 4l2 2a24 24 0 0 1 5 7l141 187h0a24 24 0 0 1 4 14v339l381 399h-71z m408 429h-905a24 24 0 0 1-24-24v-24h952v24a24 24 0 0 1-23 24z" horiz-adv-x="957" />

<glyph glyph-name="filtro_quitar" unicode="&#xe80e;" d="M923 243a214 214 0 1 1-78-293 214 214 0 0 1 78 293z m-102-250a165 165 0 1 0 60 225 165 165 0 0 0-60-225z m24 251a17 17 0 0 1-24 0l-83-84-84 83a17 17 0 1 1-24-24l84-83-84-84a17 17 0 1 1 24-24l84 84 83-84a17 17 0 0 1 24 24l-83 84 84 83a17 17 0 0 1-1 24z m-99 416h-540l-135 142h-71l381-400v-528a24 24 0 0 1 24-24 24 24 0 0 1 11 3h0a24 24 0 0 1 12 16l138 181a24 24 0 0 1 5 14v339l381 399h-71z m183 190h-905a24 24 0 0 1-24-24v-24h952v24a24 24 0 0 1-23 24z" horiz-adv-x="952" />

<glyph glyph-name="flujo_llamadaext" unicode="&#xe80f;" d="M347 360v95a21 21 0 0 0 34 17l178-141a28 28 0 0 0-2-44l-173-118a24 24 0 0 0-37 19v76s-223 37-347-121c3 204 347 217 347 217z m429 137a226 226 0 0 1-33-2 233 233 0 0 1-451 12c-6 1-11 1-17 1-126 0-229-89-229-215 0-3 0-6 0-9 8 5 24 17 32 22-2 112 127 195 232 166 17 93 106 174 206 174a208 208 0 0 0 207-184c17 5 38 11 57 10 111-7 191-85 191-196s-76-184-188-198c-57-6-113 26-149 65-25-49-74-90-133-90-47 0-88 26-115 60-33-22-73-40-115-40a204 204 0 0 0-183 117c-8-4-16-10-24-15 34-83 116-126 211-126a228 228 0 0 1 107 27 169 169 0 0 1 256 21 224 224 0 1 1 138 400z" horiz-adv-x="1000" />

<glyph glyph-name="menuppal" unicode="&#xe810;" d="M350 300h-250a100 100 0 0 1-100-100v-250a100 100 0 0 1 100-100h250a100 100 0 0 1 100 100v250a100 100 0 0 1-100 100z m50-350a50 50 0 0 0-50-50h-250a50 50 0 0 0-50 50v250a50 50 0 0 0 50 50h250a50 50 0 0 0 50-50z m500 350h-250a100 100 0 0 1-100-100v-250a100 100 0 0 1 100-100h250a100 100 0 0 1 100 100v250a100 100 0 0 1-100 100z m50-350a50 50 0 0 0-50-50h-250a50 50 0 0 0-50 50v250a50 50 0 0 0 50 50h250a50 50 0 0 0 50-50z m-600 900h-250a100 100 0 0 1-100-100v-250a100 100 0 0 1 100-100h250a100 100 0 0 1 100 100v250a100 100 0 0 1-100 100z m50-350a50 50 0 0 0-50-50h-250a50 50 0 0 0-50 50v250a50 50 0 0 0 50 50h250a50 50 0 0 0 50-50z m500 350h-250a100 100 0 0 1-100-100v-250a100 100 0 0 1 100-100h250a100 100 0 0 1 100 100v250a100 100 0 0 1-100 100z m50-350a50 50 0 0 0-50-50h-250a50 50 0 0 0-50 50v250a50 50 0 0 0 50 50h250a50 50 0 0 0 50-50z" horiz-adv-x="1000" />

<glyph glyph-name="flujo_roles" unicode="&#xe811;" d="M544 294a278 278 0 1 1-277 278 278 278 0 0 1 277-278z m0 500a222 222 0 1 0-222-222 222 222 0 0 0 222 222z m500-500a167 167 0 1 1-166 167 167 167 0 0 1 166-167z m0 278a111 111 0 1 0-111-111 111 111 0 0 0 111 111z m0-278a358 358 0 0 1-168-42 613 613 0 0 0 51-37 305 305 0 0 0 411-198h57a361 361 0 0 1-351 277z m-500 0a556 556 0 0 1-544-444h57a500 500 0 0 0 975 0h57a556 556 0 0 1-545 444z" horiz-adv-x="1396" />

<glyph glyph-name="mensaje" unicode="&#xe812;" d="M527 850c-291 0-527-189-527-422 0-158 110-297 272-369h-8v-158c0-58 29-68 65-23l107 135a660 660 0 0 1 91-6c291 0 527 189 527 421s-236 422-527 422z m0-791a606 606 0 0 0-109 10l-102-128v157c-156 60-263 186-263 330 0 204 212 369 474 369s474-165 474-369-212-369-474-369z m-256 224h-93v78h93a6 6 0 0 1 3 0 4 4 0 0 1 1 1 9 9 0 0 1 2 3 5 5 0 0 1 0 4 9 9 0 0 1-2 3 4 4 0 0 1-1 1 6 6 0 0 1-3 0h-17a83 83 0 0 0-33 7 86 86 0 0 0-27 18 85 85 0 0 0-18 93 85 85 0 0 0 45 45 83 83 0 0 0 33 6h92v-78h-92a6 6 0 0 1-3-1 6 6 0 0 1-3-3 6 6 0 0 1-1-2 5 5 0 0 1 1-2 6 6 0 0 1 1-2 6 6 0 0 1 2-2 6 6 0 0 1 3 0h17a84 84 0 0 0 60-25 86 86 0 0 0 18-27 85 85 0 0 0 0-66 83 83 0 0 0-45-44 83 83 0 0 0-33-7z m624 0h-78v165a16 16 0 0 1-1 7 14 14 0 0 1-3 4 20 20 0 0 1-6 4 13 13 0 0 1-5 1 14 14 0 0 1-6-1 19 19 0 0 1-6-4 14 14 0 0 1-3-4 16 16 0 0 1-1-7v-165h-78v165a16 16 0 0 1-1 7 14 14 0 0 1-3 4 20 20 0 0 1-6 4 15 15 0 0 1-12 0 19 19 0 0 1-5-4 13 13 0 0 1-3-4 16 16 0 0 1-1-7v-165h-78v165a91 91 0 0 0 7 37 96 96 0 0 0 20 29 93 93 0 0 0 66 28 91 91 0 0 0 42-10 98 98 0 0 0 13-8 96 96 0 0 0 13 8 92 92 0 0 0 42 10 91 91 0 0 0 36-8 95 95 0 0 0 50-49 91 91 0 0 0 7-37z m-425 259a130 130 0 1 1 130-129v129z m54-129c0-28-25-51-55-51s-55 23-55 51 25 51 55 51h55z" horiz-adv-x="1054" />

<glyph glyph-name="resumen" unicode="&#xe813;" d="M879 696l-110 30a97 97 0 0 1-90 60h-137l-225 61a97 97 0 0 1-116-61h-104a97 97 0 0 1-97-97v-678a97 97 0 0 1 97-97h330l226-61a97 97 0 0 1 119 69l175 655a97 97 0 0 1-68 119z m-575 104l51-14h-99a49 49 0 0 0 48 14z m361-900l-50 14h64a97 97 0 0 1 41 9 49 49 0 0 0-55-23z m62 111a49 49 0 0 0-48-49h-582a49 49 0 0 0-48 49v678a49 49 0 0 0 48 49h582a49 49 0 0 0 48-49z m173 579l-124-466v550l90-25a49 49 0 0 0 34-59z m-343 2h-339a24 24 0 1 1 0-48h340a24 24 0 1 1 0 48z m0-97h-339a24 24 0 0 1-24-24h0a24 24 0 0 1 24-24h340a24 24 0 0 1 24 24h0a24 24 0 0 1-25 24z m-193-96h-146a24 24 0 1 1 0-49h146a24 24 0 1 1 0 49z" horiz-adv-x="950" />

<glyph glyph-name="imprimir" unicode="&#xe814;" d="M395 534h263a26 26 0 0 1 0 53h-263a26 26 0 0 1 0-53z m500-263h0z m-500 369h263a26 26 0 1 1 0 52h-263a26 26 0 0 1 0-52z m552-264h-105v369a105 105 0 0 1-105 105h-421a105 105 0 0 1-105-105v-369h-106a105 105 0 0 1-105-105v-316a105 105 0 0 1 105-105h842a105 105 0 0 1 106 105v316a105 105 0 0 1-106 105z m53-421a53 53 0 0 0-53-53h-842a53 53 0 0 0-52 53v316a53 53 0 0 0 52 53h106v-53h52v474a53 53 0 0 0 53 52h421a53 53 0 0 0 52-52v-474h53v53h105a53 53 0 0 0 53-53z m-842 316h0z m53-53h631a53 53 0 0 1 53 53h-737a53 53 0 0 1 53-53z m184 264a26 26 0 0 1 0-53h105a26 26 0 0 1 0 53z" horiz-adv-x="1053" />

<glyph glyph-name="impresora" unicode="&#xe815;" d="M895 271h0z m-500 369h263a26 26 0 1 1 0 52h-263a26 26 0 0 1 0-52z m0-106h263a26 26 0 0 1 0 53h-263a26 26 0 0 1 0-53z m-237-263h0z m789 105h-105v369a105 105 0 0 1-105 105h-421a105 105 0 0 1-105-105v-369h-106a105 105 0 0 1-105-105v-316a105 105 0 0 1 105-105h842a105 105 0 0 1 106 105v316a105 105 0 0 1-106 105z m53-421a53 53 0 0 0-53-53h-842a53 53 0 0 0-52 53v316a53 53 0 0 0 52 53h106v-53h52v474a53 53 0 0 0 53 52h421a53 53 0 0 0 52-52v-474h53v53h105a53 53 0 0 0 53-53z m-107 147l-45 0a16 16 0 0 1-16-17l0-23a16 16 0 0 1 17-16l42 0a18 18 0 0 1 17 18v23a15 15 0 0 1-15 15z m2 169h-737a53 53 0 0 1 53-53h631a53 53 0 0 1 53 53z m-500 211a26 26 0 0 1 0-53h105a26 26 0 0 1 0 53z" horiz-adv-x="1053" />

<glyph glyph-name="grabar" unicode="&#xe816;" d="M896 749c-31 31-108 101-152 101h-628a116 116 0 0 1-116-116v-768a116 116 0 0 1 116-116h768a116 116 0 0 1 116 116v634c0 42-65 112-104 149z m-655 49h466v-201a54 54 0 0 0-54-54h-345a67 67 0 0 0-67 67z m-37-895v405a33 33 0 0 0 33 33h516a46 46 0 0 0 46-46v-392z m744 63a65 65 0 0 0-64-64h-33v393a98 98 0 0 1-98 98h-516a85 85 0 0 1-85-85v-406h-36a65 65 0 0 0-64 64v768a65 65 0 0 0 64 64h74v-188a119 119 0 0 1 118-119h345a106 106 0 0 1 106 106v196c20-11 56-37 101-80 58-57 87-101 88-113z m-293 620h-80v175h80z" horiz-adv-x="1000" />

<glyph glyph-name="orden" unicode="&#xe817;" d="M568 646h-545a23 23 0 1 1 0-46h545a23 23 0 0 1 0 46z m0-273h-545a23 23 0 1 1 0-46h545a23 23 0 0 1 0 46z m0-273h-545a23 23 0 1 1 0-46h545a23 23 0 0 1 0 46z m198 348l97 97 97-97a23 23 0 0 1 33 32l-113 114h0a23 23 0 0 1-32 0l-114-114a23 23 0 1 1 33-32z m195-196l-97-97-97 97a23 23 0 1 1-33-32l114-114a23 23 0 0 1 32 0h0l114 114a23 23 0 0 1-33 32z" horiz-adv-x="1000" />

<glyph glyph-name="orden_descen" unicode="&#xe818;" d="M568 647h-545a23 23 0 0 1 0-46h545a23 23 0 0 1 0 46z m0-273h-545a23 23 0 1 1 0-45h545a23 23 0 1 1 0 45z m0-273h-545a23 23 0 1 1 0-45h545a23 23 0 1 1 0 45z m425 153a23 23 0 0 1-32 0l-97-98-97 98a23 23 0 1 1-33-33l114-113a23 23 0 0 1 32 0h0l114 113a23 23 0 0 1-1 33z" horiz-adv-x="1000" />

<glyph glyph-name="geolocalizacion" unicode="&#xe819;" d="M602 372h-93v160a525 525 0 0 1 155 30 608 608 0 0 0 27-97 237 237 0 0 1-89-93z m301 115a422 422 0 0 1-89 154 491 491 0 0 0-119-69 635 635 0 0 0 25-93 262 262 0 0 0 102 20 266 266 0 0 0 81-12z m-111 178a414 414 0 0 1-229 116 571 571 0 0 0 120-180 451 451 0 0 1 109 64z m-204-324h-79v-191a591 591 0 0 0 83-10c-14 34-22 67-22 97a296 296 0 0 0 18 104z m-77 445h-2v-222a548 548 0 0 1 144 27 514 514 0 0 1-142 195z m-225-414h192v160a536 536 0 0 0-156 30 646 646 0 0 1-36-190z m48 219a548 548 0 0 1 144-27v222h-2a514 514 0 0 1-142-195z m90 190a419 419 0 0 1-229-116 470 470 0 0 1 110-64 571 571 0 0 0 119 180z m139-848a424 424 0 0 1 127 41c-15 21-30 42-44 65a550 550 0 0 0-83-106z m-54 185v-191h2a505 505 0 0 1 116 143q-10 17-19 34a644 644 0 0 1-99 14z m-177 6a581 581 0 0 0 146 26v191h-192a639 639 0 0 1 46-217z m-77 217h-191q7-169 128-289a540 540 0 0 0 111 61 659 659 0 0 0-48 228z m37 231a490 490 0 0 0-119 69 410 410 0 0 1-109-269h191a663 663 0 0 0 37 200z m184-645h2v191a611 611 0 0 1-132-22 515 515 0 0 1 130-169z m-261 103a415 415 0 0 1 209-97 557 557 0 0 0-107 151 408 408 0 0 1-102-54z m514 268c0-2 0-4 0-6q2 14 3 28a93 93 0 0 1-3-22z m185 0a93 93 0 0 0-185-6q2 14 3 28a92 92 0 0 0 7 21 93 93 0 0 0 175-43z m-31 0a62 62 0 1 1-61-61 62 62 0 0 1 61 61z m104 77a195 195 0 0 1-70 55 232 232 0 0 1-189 1 200 200 0 0 1-30-17 193 193 0 0 1-44-42 199 199 0 0 1-20-31 238 238 0 0 1-24-108c0-31 11-67 28-104a592 592 0 0 1 28-53 870 870 0 0 1 57-83c15-19 29-36 42-51 13-14 24-25 33-33 14-15 31-14 47 0 55 51 188 216 188 324 0 58-17 106-46 142z m-296 90a608 608 0 0 1-27 97 525 525 0 0 0-155-30v-160h93a237 237 0 0 0 89 93z m382-228c0-122-144-304-214-372-25-20-50-20-75 0-15 14-33 34-52 57q-107-60-239-59-206 2-348 145t-145 349q0 205 145 348t348 145q204 1 350-145 112-112 137-259c57-46 93-118 93-209z m-564 135h93a237 237 0 0 0 89 93 608 608 0 0 1-27 97 525 525 0 0 0-155-30z" horiz-adv-x="1073" />

<glyph glyph-name="logistica" unicode="&#xe81a;" d="M162 511v-106a5 5 0 0 1 9-3l0 0a1 1 0 0 0 2 0l3-6a8 8 0 0 1 13-1h0a1 1 0 0 0 1 0l5-8a10 10 0 0 1 12-4s6 3 7-1l2-10a12 12 0 0 1 15-6l3 1a3 3 0 0 0 4-2l1-3a12 12 0 0 1 14-7l7 1a5 5 0 0 0 5-2 3 3 0 0 1 1-1l3-10c3-5 11-6 11-1v104a1 1 0 0 1 0 0l-117 66a1 1 0 0 1-1-1z m731 40a101 101 0 0 1-51 88l-346 198a101 101 0 0 1-101-1l-345-201a101 101 0 0 1-50-87l2-399a101 101 0 0 1 50-87l347-199a101 101 0 0 1 101 1l345 201a101 101 0 0 1 50 87z m-472 242a50 50 0 0 0 50 0l88-51-371-214-112 64z m-343-688a50 50 0 0 0-26 44l-1 399 351-201a42 42 0 0 0 22-36l0-404z m341 291l-113 65 370 214 141-80-339-199a59 59 0 0 0-59 0z m400-288l-344-200-1 403a42 42 0 0 0 21 37l348 203 1-399a50 50 0 0 0-25-43z" horiz-adv-x="895" />

<glyph glyph-name="sistemaext" unicode="&#xe81b;" d="M809 137a46 46 0 1 1 47-46 46 46 0 0 1-47 46z m0-64a18 18 0 1 0 19 18 18 18 0 0 0-19-18z m106-39a46 46 0 1 1 46-46 46 46 0 0 1-46 46z m0-65a18 18 0 1 0 18 19 18 18 0 0 0-18-19z m0 168a46 46 0 1 1 46-46 46 46 0 0 1-46 46z m0-64a18 18 0 1 0 18 18 18 18 0 0 0-18-18z m140 115c0-1 1-3 1-5v-222a56 56 0 0 0-56-55h-889a56 56 0 0 0-55 55v222a56 56 0 0 0 55 56h276c-23 20-47 41-60 55h-216a111 111 0 0 1-111-111v-222a111 111 0 0 1 111-111h889a111 111 0 0 1 111 111v222c0 1 0 2 0 3a57 57 0 0 1-29 8 53 53 0 0 1-27-6z m-246-154a46 46 0 1 1 47-46 46 46 0 0 1-47 46z m0-65a18 18 0 1 0 19 19 18 18 0 0 0-19-19z m0 724a46 46 0 1 1 47-47 46 46 0 0 1-47 47z m0-65a18 18 0 1 0 18 18 18 18 0 0 0-18-18z m106-39a46 46 0 1 1 46-46 46 46 0 0 1-46 46z m0-64a18 18 0 1 0 18 18 18 18 0 0 0-18-18z m-106 64a46 46 0 1 1 47-46 46 46 0 0 1-47 46z m0-64a18 18 0 1 0 18 18 18 18 0 0 0-18-18z m-407-64h-291a56 56 0 0 0-55 56v222a56 56 0 0 0 55 55h889a56 56 0 0 0 56-55v-222a56 56 0 0 0-1-7 56 56 0 0 1 29-8 53 53 0 0 1 27 7c0 2 0 5 0 8v222a111 111 0 0 1-111 111h-889a111 111 0 0 1-111-111v-222a111 111 0 0 1 111-111h217c12 11 36 26 61 45z m513 232a46 46 0 1 1 46-47 46 46 0 0 1-46 47z m0-65a18 18 0 1 0 18 18 18 18 0 0 0-18-18z m152-162h-322v161c0 45-26 55-59 24l-331-277a39 39 0 0 1 0-57l331-276c33-32 59-21 59 23v161h322a80 80 0 0 1 81 80v81a80 80 0 0 1-81 80z m40-162a40 40 0 0 0-40-40h-362v-191l-319 271 319 271v-190h362a40 40 0 0 0 40-41z" horiz-adv-x="1148" />

<glyph glyph-name="proyectos" unicode="&#xe81c;" d="M1066 76l-168 628a100 100 0 0 1-122 71l-194-52a100 100 0 0 1-70-122l168-628a100 100 0 0 1 122-71l194 52a100 100 0 0 1 70 122z m-83-74l-194-52a50 50 0 0 0-61 36l-168 628a50 50 0 0 0 35 61l194 52a50 50 0 0 0 61-36l168-627a50 50 0 0 0-35-62z m-958 848a25 25 0 0 1-25-25v-950a25 25 0 1 1 50 0v950a25 25 0 0 1-25 25z m365-100h-200a100 100 0 0 1-100-100v-650a100 100 0 0 1 100-100h200a100 100 0 0 1 100 100v650a100 100 0 0 1-100 100z m50-750a50 50 0 0 0-50-50h-200a50 50 0 0 0-50 50v650a50 50 0 0 0 50 50h200a50 50 0 0 0 50-50z m331 601a17 17 0 0 1-21 12l-64-17a17 17 0 0 1-12-21l11-38a17 17 0 0 1 21-13l63 18a17 17 0 0 1 13 20z m-450-1h-63c-10 0-18-14-18-31v-22c0-17 8-30 18-30h63c11 0 19 13 19 30v23c0 16-8 30-19 30z" horiz-adv-x="1070" />

<glyph glyph-name="orden_ascen" unicode="&#xe81d;" d="M568 647h-545a23 23 0 0 1 0-46h545a23 23 0 0 1 0 46z m0-273h-545a23 23 0 1 1 0-45h545a23 23 0 1 1 0 45z m0-273h-545a23 23 0 1 1 0-45h545a23 23 0 1 1 0 45z m425 380l-113 114h0a23 23 0 0 1-32 0l-114-114a23 23 0 0 1 32-32l97 97 98-97a23 23 0 1 1 32 32z" horiz-adv-x="1000" />

<glyph glyph-name="sistemas" unicode="&#xe81e;" d="M915 34a46 46 0 1 1 46-46 46 46 0 0 1-46 46z m0-65a18 18 0 1 0 18 19 18 18 0 0 0-18-19z m-106 168a46 46 0 1 1 47-46 46 46 0 0 1-47 46z m0-64a18 18 0 1 0 19 18 18 18 0 0 0-19-18z m191 777h-889a111 111 0 0 1-111-111v-222a111 111 0 0 1 111-111h889a111 111 0 0 1 111 111v222a111 111 0 0 1-111 111z m56-333a56 56 0 0 0-56-56h-889a56 56 0 0 0-55 56v222a56 56 0 0 0 55 55h889a56 56 0 0 0 56-55z m-247-483a46 46 0 1 1 47-46 46 46 0 0 1-47 46z m0-65a18 18 0 1 0 19 19 18 18 0 0 0-19-19z m106 724a46 46 0 1 1 46-47 46 46 0 0 1-46 47z m0-65a18 18 0 1 0 18 18 18 18 0 0 0-18-18z m0-39a46 46 0 1 1 46-46 46 46 0 0 1-46 46z m0-64a18 18 0 1 0 18 18 18 18 0 0 0-18-18z m-106 64a46 46 0 1 1 47-46 46 46 0 0 1-47 46z m0-64a18 18 0 1 0 18 18 18 18 0 0 0-18-18z m106-388a46 46 0 1 1 46-46 46 46 0 0 1-46 46z m0-64a18 18 0 1 0 18 18 18 18 0 0 0-18-18z m-106 620a46 46 0 1 1 47-47 46 46 0 0 1-47 47z m0-65a18 18 0 1 0 18 18 18 18 0 0 0-18-18z m191-334h-889a111 111 0 0 1-111-111v-222a111 111 0 0 1 111-111h889a111 111 0 0 1 111 111v222a111 111 0 0 1-111 111z m56-333a56 56 0 0 0-56-55h-889a56 56 0 0 0-55 55v222a56 56 0 0 0 55 56h889a56 56 0 0 0 56-56z" horiz-adv-x="1111" />

<glyph glyph-name="herramientas" unicode="&#xe81f;" d="M689 367v29a46 46 0 0 1-45 45h-23v205l23 45-23 159h-45l-23-159 23-45h0v-205h-23a46 46 0 0 1-45-45v-29a159 159 0 0 1-69-131v-227a159 159 0 0 1 319 0v227a159 159 0 0 1-69 131z m23-358a114 114 0 0 0-227 0v227a114 114 0 0 0 227 0z m-470 841v-136c0-25-27-46-53-46s-53 21-53 46v136h-90s-46-81-46-182c0-76 52-142 121-169v-581a68 68 0 1 1 137 0v581c69 27 121 93 121 169 0 68-46 182-46 182z m-30-932a23 23 0 1 0-45 0v570a179 179 0 0 1 45 0z m-23 614c-75 0-143 61-143 136a310 310 0 0 0 34 137h11v-91c0-51 48-91 98-91s99 40 99 91v91h11s34-86 34-137c0-75-68-136-144-136z" horiz-adv-x="758" />

<glyph glyph-name="gear" unicode="&#xe820;" d="M999 382a44 44 0 0 1-29 39l-89 31a44 44 0 0 0-27 27q-5 16-12 31a44 44 0 0 0 0 37l40 85a44 44 0 0 1-7 49 503 503 0 0 1-44 44 44 44 0 0 1-49 7l-83-39a45 45 0 0 0-38 0q-16 8-33 14a45 45 0 0 0-27 27l-30 86a44 44 0 0 1-39 29q-16 1-32 1t-32-1a44 44 0 0 1-38-29l-31-85a45 45 0 0 0-27-27 375 375 0 0 1-35-14 45 45 0 0 0-38 0l-81 38a44 44 0 0 1-49-7 503 503 0 0 1-44-44 44 44 0 0 1-7-49l39-81a45 45 0 0 0 0-38q-8-17-15-35a45 45 0 0 0-27-27l-85-30a44 44 0 0 1-29-39q-1-16-1-32t1-32a44 44 0 0 1 29-38l87-31a45 45 0 0 0 27-27q6-17 13-32a45 45 0 0 0 1-39l-40-83a44 44 0 0 1 7-48 503 503 0 0 1 45-45 44 44 0 0 1 48-7l85 41a44 44 0 0 0 38 0q15-7 30-13a44 44 0 0 0 27-27l32-89a44 44 0 0 1 38-29q16-1 32-1t32 1a44 44 0 0 1 38 29l33 91a44 44 0 0 0 26 26q15 6 29 12a44 44 0 0 0 38 0l86-41a44 44 0 0 1 49 7 503 503 0 0 1 44 44 44 44 0 0 1 7 49l-41 86a44 44 0 0 0 0 38q7 14 12 29a44 44 0 0 0 27 27l90 32a44 44 0 0 1 29 38q1 16 1 32t-1 32z m-496-194a162 162 0 1 0 163 162 162 162 0 0 0-163-162z" horiz-adv-x="1000" />

<glyph glyph-name="trigger" unicode="&#xe821;" d="M433 51v58c0 31 18 57 50 57h230v114c0 32 18 39 42 17l96-80c1 1 1 3 2 4a44 44 0 0 0 26 27l91 32a44 44 0 0 1 29 38q1 16 1 32t-1 32a44 44 0 0 1-29 39l-89 31a44 44 0 0 0-27 27q-5 16-12 31a44 44 0 0 0 0 37l40 85a44 44 0 0 1-7 49 503 503 0 0 1-44 44 44 44 0 0 1-49 7l-83-39a45 45 0 0 0-38 0q-16 8-33 14a45 45 0 0 0-27 27l-30 86a44 44 0 0 1-39 29q-16 1-32 1t-32-1a44 44 0 0 1-38-29l-31-85a45 45 0 0 0-27-27 375 375 0 0 1-35-14 45 45 0 0 0-38 0l-81 38a44 44 0 0 1-49-7 503 503 0 0 1-44-44 44 44 0 0 1-7-49l39-81a45 45 0 0 0 0-38q-8-17-15-35a45 45 0 0 0-27-27l-85-30a44 44 0 0 1-29-39q-1-16-1-32t1-32a44 44 0 0 1 29-38l87-31a45 45 0 0 0 27-27q6-17 13-32a45 45 0 0 0 1-39l-40-83a44 44 0 0 1 7-48 503 503 0 0 1 45-45 44 44 0 0 1 48-7l85 41a44 44 0 0 0 38 0q15-7 30-13a44 44 0 0 0 27-27l32-89a44 44 0 0 1 38-29q16-1 32-1t32 1a44 44 0 0 1 38 29l33 91a44 44 0 0 0 19 23h-139c-32 0-50 26-50 57z m-92 299a162 162 0 1 0 162-162 162 162 0 0 0-162 162z m624-257l-199 165c-19 19-35 12-35-14v-96h-237c-27 0-42-22-42-48v-34c0-26 15-48 42-48h237v-96c0-27 16-33 35-14l199 165c10 10 10 10 0 20z" horiz-adv-x="1000" />

<glyph glyph-name="recurso" unicode="&#xe822;" d="M557 461a56 56 0 0 1-57-56v-92a56 56 0 0 1 57-55c30 0 54 27 54 57v89c0 30-24 57-54 57z m443 222h-222v111a56 56 0 0 1-56 56h-333a56 56 0 0 1-56-56v-111h-222a111 111 0 0 1-111-111v-611a111 111 0 0 1 111-111h889a111 111 0 0 1 111 111v611a111 111 0 0 1-111 111z m-611 94a18 18 0 0 0 18 18h297a18 18 0 0 0 18-18v-94h-333z m667-390l0 0h-363a26 26 0 0 1-26-26v-4a26 26 0 0 1 26-26h363l0 0v-370a56 56 0 0 0-56-55h-889a56 56 0 0 0-55 55v371h361a27 27 0 0 1 27 27v1a27 27 0 0 1-27 27h-361v185a56 56 0 0 0 55 56h889a56 56 0 0 0 56-56z" horiz-adv-x="1111" />

<glyph glyph-name="subpeticion" unicode="&#xe823;" d="M183 461h0a23 23 0 0 0 23 23h138a23 23 0 0 0 23-23h0a23 23 0 0 0-23-23h-138a23 23 0 0 0-23 23z m344 114h-321a23 23 0 0 1-23-23h0a23 23 0 0 1 23-23h321a23 23 0 0 1 23 23h0a23 23 0 0 1-23 23z m0 92h-321a23 23 0 0 1-23-23h0a23 23 0 0 1 23-23h321a23 23 0 0 1 23 23h0a23 23 0 0 1-23 23z m343-482v436a92 92 0 0 1-91 92h-46v45a92 92 0 0 1-92 92h-549a92 92 0 0 1-92-92v-641a92 92 0 0 1 92-91h45v-46a92 92 0 0 1 92-92h344a213 213 0 0 1 297 297z m-137 482h46a46 46 0 0 0 45-46v-388a212 212 0 0 1-91 41z m-641-596a46 46 0 0 0-46 46v641a46 46 0 0 0 46 46h549a46 46 0 0 0 46-46v-481a214 214 0 0 1-205-206z m137-137a46 46 0 0 0-46 46v46h302a212 212 0 0 1 40-92z m467-37a168 168 0 0 0-167 168c0 2 0 5 0 8a168 168 0 0 0 159 159c3 0 5 0 8 0a167 167 0 1 0 0-335z m86 190h-61v66a23 23 0 0 1-46 0v-66h-65a23 23 0 0 1 0-46h65v-65a23 23 0 1 1 46 0v65h61a23 23 0 0 1 0 46z" horiz-adv-x="908" />

<glyph glyph-name="gear2" unicode="&#xe824;" d="M500-150c-11 0-21 0-32 1a65 65 0 0 0-57 43l-30 85a19 19 0 0 1-12 12c-10 4-21 8-31 13a19 19 0 0 1-16 0l-81-39a65 65 0 0 0-72 10 504 504 0 0 0-44 45 65 65 0 0 0-10 71l37 79a19 19 0 0 1 0 17c-5 11-9 22-14 33a19 19 0 0 1-11 12l-83 29a65 65 0 0 0-43 57c-1 11-1 21-1 32s0 21 1 32a65 65 0 0 0 43 57l82 29a19 19 0 0 1 11 12 328 328 0 0 0 15 35 19 19 0 0 1 0 17l-37 77a65 65 0 0 0 10 72 504 504 0 0 0 44 44 65 65 0 0 0 72 10l77-36a19 19 0 0 1 17 0 382 382 0 0 0 35 14 19 19 0 0 1 12 12l29 81a65 65 0 0 0 57 43 523 523 0 0 0 64 0 65 65 0 0 0 57-43l29-83a19 19 0 0 1 12-11c12-4 23-9 34-14a19 19 0 0 1 16 0l79 37a66 66 0 0 0 72-10 505 505 0 0 0 44-44 65 65 0 0 0 10-72l-38-81a19 19 0 0 1 0-16c4-10 9-20 12-31a19 19 0 0 1 12-12l85-30a65 65 0 0 0 43-57h0c1-11 1-21 1-32s0-21-1-31a65 65 0 0 0-43-58l-86-30a19 19 0 0 1-12-12c-4-10-8-20-12-29a19 19 0 0 1 0-17l39-82a65 65 0 0 0-10-72 505 505 0 0 0-44-44 65 65 0 0 0-72-10l-82 39a19 19 0 0 1-17 0c-9-4-19-9-29-12a19 19 0 0 1-11-12l-31-86a65 65 0 0 0-57-43c-11-1-21-1-32-1z m-170 202a65 65 0 0 0 28-6c8-4 18-8 27-11a65 65 0 0 0 39-40l30-85a19 19 0 0 1 17-13 453 453 0 0 1 57 0 19 19 0 0 1 17 13l31 86a65 65 0 0 0 39 39c9 4 17 7 26 11a65 65 0 0 0 55 0l83-39a19 19 0 0 1 21 3 459 459 0 0 1 40 40 19 19 0 0 1 3 21l-39 82a65 65 0 0 0 0 56c4 9 8 17 11 26a65 65 0 0 0 39 39l86 31a19 19 0 0 1 13 16c0 10 1 20 1 29s-1 19-1 29h0a19 19 0 0 1-13 16l-84 31a65 65 0 0 0-40 40c-3 9-7 18-11 27a65 65 0 0 0 0 55l38 81a19 19 0 0 1-3 21 459 459 0 0 1-40 40 19 19 0 0 1-21 3l-79-37a66 66 0 0 0-57 0c-9 5-19 9-29 12a65 65 0 0 0-39 40l-29 82a19 19 0 0 1-17 13 479 479 0 0 1-57 0 19 19 0 0 1-17-13l-29-81a66 66 0 0 0-40-40 336 336 0 0 1-32-12 65 65 0 0 0-56 0l-77 36a19 19 0 0 1-21-3 459 459 0 0 1-40-40 19 19 0 0 1-3-21l37-77a66 66 0 0 0 0-57 283 283 0 0 1-13-31 65 65 0 0 0-40-40l-81-29a19 19 0 0 1-13-16c0-10-1-20-1-29s1-19 1-29a19 19 0 0 1 13-17l82-29a66 66 0 0 0 40-39c4-10 8-20 12-29a65 65 0 0 0 0-57l-37-79a19 19 0 0 1 3-21 458 458 0 0 1 40-40 19 19 0 0 1 21-3l81 38a66 66 0 0 0 28 7z m173 120a178 178 0 1 0 178 178 178 178 0 0 0-178-178z m0 310a132 132 0 1 1 132-132 132 132 0 0 1-132 132z" horiz-adv-x="1000" />

<glyph glyph-name="excel" unicode="&#xe825;" d="M39 43a38 38 0 0 1 4-17 68 68 0 0 0-1 13v622a68 68 0 0 0 2 13 38 38 0 0 1-5-17z m652 559v55a77 77 0 0 1-77 76h-54v31c0 57-37 95-81 84l-432-103c-26-6-47-46-47-88v-614c0-42 21-81 47-88l432-103c44-11 81 27 81 84v31h54a77 77 0 0 1 77 76v111l-38-32v-79a38 38 0 0 0-39-38h-54v690h54a38 38 0 0 0 39-38v-23z m-174-203v-455c0-28-17-47-38-42l-289 65-125 28c-10 2-18 15-21 31a38 38 0 0 0-5 17v614a38 38 0 0 0 5 17c3 16 11 29 21 31l125 28 289 66c21 4 38-15 38-42v-359z m368 0l-136 114-62 51-15 13c-21 20-38 13-38-15v-104h-95v-49h147v97l1-1 62-52 86-72-86-73-62-51-1-1v97h-147v-50h95v-103c0-29 17-35 38-15l15 12 62 51 136 114a25 25 0 0 1 0 37z m-819-247l129 223-118 210 88 13 84-146 94 172 128 18-166-273 184-299-135 26-106 191-93-152z" horiz-adv-x="893" />

<glyph glyph-name="flujo_llamadaext2" unicode="&#xe826;" d="M304 336v84a19 19 0 0 0 30 14l156-123a24 24 0 0 0-1-39l-152-104a21 21 0 0 0-33 18v66s-195 32-304-106c3 179 304 190 304 190z m473 160a224 224 0 0 1-33-2 232 232 0 0 1-448 13c-6 0-11 0-17 0-126 0-228-88-228-214 0-3 0-6 1-9 94 73 231 79 231 79v98a25 25 0 0 0 40 19l208-164a32 32 0 0 0-2-51l-202-139a28 28 0 0 0-44 23v73s-102 25-214-46c34-82 115-125 210-125a227 227 0 0 1 106 26 168 168 0 0 1 255 22 223 223 0 1 1 137 397z" horiz-adv-x="1000" />

<glyph glyph-name="trigger2" unicode="&#xe827;" d="M495 533a175 175 0 0 1-139-281 59 59 0 0 0 12 1h51a129 129 0 1 0 151 0h65c0 1 1 2 2 3l-1 132c0 21 8 35 19 40a175 175 0 0 1-160 105z m-198-474l-80-38a19 19 0 0 0-20 3 451 451 0 0 0-40 40 19 19 0 0 0-3 20l37 78a64 64 0 0 1 0 56c-4 9-9 19-12 28a65 65 0 0 1-39 39l-81 29a19 19 0 0 0-13 16c0 9 0 19 0 28s0 19 0 29a19 19 0 0 0 13 16l80 28a64 64 0 0 1 39 40 278 278 0 0 0 12 30 65 65 0 0 1 0 56l-36 76a19 19 0 0 0 3 21 451 451 0 0 0 40 39 19 19 0 0 0 20 3l76-36a64 64 0 0 1 55 0 330 330 0 0 0 31 12 65 65 0 0 1 40 40l28 79a19 19 0 0 0 16 13 471 471 0 0 0 57 0 19 19 0 0 0 16-13l29-81a64 64 0 0 1 39-38c10-4 20-8 29-12a65 65 0 0 1 56-1l77 37a19 19 0 0 0 21-3 452 452 0 0 0 39-40 19 19 0 0 0 3-20l-38-80a64 64 0 0 1 0-54c4-9 8-18 11-27a64 64 0 0 1 39-39l84-30a19 19 0 0 0 12-16h0c1-10 1-19 1-29s0-18-1-28a19 19 0 0 0-12-16l-66-23 43-34 38 14a64 64 0 0 1 43 56c0 11 0 21 0 32s0 20 0 31a64 64 0 0 1-43 56l-83 30a19 19 0 0 0-12 11c-3 10-8 21-12 31a19 19 0 0 0 0 16l38 79a64 64 0 0 1-10 71 496 496 0 0 1-44 43 65 65 0 0 1-70 10l-78-37a19 19 0 0 0-16 0c-11 5-22 10-33 14a19 19 0 0 0-12 12l-28 80a64 64 0 0 1-57 43 514 514 0 0 1-62 0 64 64 0 0 1-57-42l-28-80a19 19 0 0 0-12-12 376 376 0 0 1-35-14 19 19 0 0 0-16 0l-76 36a64 64 0 0 1-70-10 496 496 0 0 1-44-43 64 64 0 0 1-10-71l36-76a19 19 0 0 0 0-16 322 322 0 0 1-14-35 19 19 0 0 0-12-12l-79-28a64 64 0 0 1-43-57c-1-10-1-20-1-31s0-21 1-31a64 64 0 0 1 43-56l81-29a19 19 0 0 0 11-11c4-12 9-22 14-33a19 19 0 0 0 0-16l-37-78a64 64 0 0 1 10-71 495 495 0 0 1 43-43 64 64 0 0 1 71-10l74 35a103 103 0 0 0-14 44z m259-78l-20-56a19 19 0 0 0-16-12 446 446 0 0 0-56 0 19 19 0 0 0-17 12l-20 56h-48l25-71a64 64 0 0 1 57-43c10 0 20-1 31-1s21 1 31 1a64 64 0 0 1 56 43l25 71z m438 159l-273 228c-27 26-49 17-49-20v-132h-267a66 66 0 0 1-66-66v-67a66 66 0 0 1 66-66h267v-133c0-36 22-45 49-19l273 228a32 32 0 0 1 0 47z m-289-90h-300a33 33 0 0 0-33 33v66a33 33 0 0 0 33 34h300z m0-157v447l264-224z" horiz-adv-x="1004" />

<glyph glyph-name="comunicacion" unicode="&#xe828;" d="M535 217l-85 1a56 56 0 0 1-57-56v-269a43 43 0 0 1 43-43l111 2a43 43 0 0 1 42 42v267a56 56 0 0 1-54 56z m-32-315h-20a39 39 0 0 0-39 38l-1 187a39 39 0 0 0 39 39h20a39 39 0 0 0 39-39l1-186a39 39 0 0 0-39-39z m22 388a35 35 0 0 1 35 35v69a35 35 0 0 1-35 35h-69a35 35 0 0 1-35-35v-69a35 35 0 0 1 35-35z m-69 82a22 22 0 0 0 22 22h26a22 22 0 0 0 22-22v-25a22 22 0 0 0-22-22h-26a22 22 0 0 0-22 22z m35 282a294 294 0 0 1-295-294h1a25 25 0 1 1 49 2 245 245 0 0 0 491-2s0 0 0 0h0a25 25 0 1 1 48 7 294 294 0 0 1-294 287z m490-287a491 491 0 0 1-981-7q0-7 0-13v13h1a25 25 0 0 1 49 0c0 1 0 2 0 2a442 442 0 0 0 883-2s0 0 0 0h0a25 25 0 1 1 48 7z" horiz-adv-x="982" />

<glyph glyph-name="gastos" unicode="&#xe829;" d="M653 211a54 54 0 0 0-24 5l-385 193 17 34 385-193a16 16 0 0 1 21 8l116 232a16 16 0 0 1-7 21l-599 299a16 16 0 0 1-21-7l-116-232a16 16 0 0 1 7-22l101-50-17-35-101 51a54 54 0 0 0-24 73l116 232a54 54 0 0 0 72 24l599-299a54 54 0 0 0 24-72l-116-233a54 54 0 0 0-48-30z m-72-195h-348v89c-26 12-86 43-110 84h0a19 19 0 0 0-2 10v312a70 70 0 0 0 19 47c13 14 32 21 56 21a69 69 0 0 0 50-20c25-25 25-64 25-70v-57l2 4 395-197-1-13c-3-58-62-103-86-118z m-310 38h272v64a19 19 0 0 0 9 17h0c19 11 65 44 75 82l-338 169h0c38-24 71-53 77-174a18 18 0 0 0-17-18h0a21 21 0 0 0-21 20c-6 106-34 124-58 139-11 7-24 15-33 28l-4 5v104c0 7-2 30-14 42a31 31 0 0 1-23 9c-13 0-23-3-29-9a32 32 0 0 1-8-21v-307c21-32 79-61 100-69l1-1a18 18 0 0 0 11-16z m357-204h-447v150a54 54 0 0 0 54 55h338a56 56 0 0 0 56-57z m-409 38h371v110a18 18 0 0 1-18 18h-337a16 16 0 0 1-16-16z m218 527a8 8 0 0 0-8-7 96 96 0 0 0-46 10 90 90 0 0 0-50 57c-6 19-5 41 2 64l-11 6a8 8 0 0 0-5 11h0a8 8 0 0 0 12 4l10-5 0 0a178 178 0 0 0 9 19l-11 5a8 8 0 0 0-4 11l0 0a8 8 0 0 0 11 5l13-7a109 109 0 0 0 51 41 91 91 0 0 0 73-3 100 100 0 0 0 32-23 9 9 0 0 0 0-11l-4-5a8 8 0 0 0-12 0 85 85 0 0 1-25 18 60 60 0 0 1-50 2c-13-5-26-16-37-31l80-38a8 8 0 0 0 4-11l0 0a8 8 0 0 0-11-4l-82 38c-3-4-5-8-7-13l-3-5 83-39a8 8 0 0 0 4-11h0a8 8 0 0 0-11-4l-81 37c-6-19-6-35-2-49a66 66 0 0 1 36-38 87 87 0 0 1 33-8 8 8 0 0 0 8-10z" horiz-adv-x="823" />

<glyph glyph-name="flujo_precond" unicode="&#xe82a;" d="M515 650l-215 179c-22 21-39 14-39-15v-104h-209a52 52 0 0 1-52-52v-52a52 52 0 0 1 52-52h209v-104c0-29 18-36 39-16l215 179a25 25 0 0 1 0 37z m0-553l-215 179c-21 20-39 14-39-15v-104h-209a52 52 0 0 1-52-52v-52a52 52 0 0 1 52-53h209v-104c0-29 18-35 39-15l215 179a25 25 0 0 1 0 37z m223-247h0a73 73 0 0 0-73 73v854a73 73 0 0 0 73 73h0a73 73 0 0 0 72-73v-855a73 73 0 0 0-72-72z" horiz-adv-x="810" />

<glyph glyph-name="flujo_poscond" unicode="&#xe82b;" d="M812 650l-215 179c-21 21-39 14-39-15v-104h-209a52 52 0 0 1-52-52v-52a52 52 0 0 1 52-52h209v-104c0-29 18-36 39-16l215 179a25 25 0 0 1 0 37z m0-553l-215 179c-21 20-39 14-39-15v-104h-209a52 52 0 0 1-52-52v-52a52 52 0 0 1 52-53h209v-104c0-29 18-35 39-15l215 179a25 25 0 0 1 0 37z m-739-247h0a73 73 0 0 0-73 73v854a73 73 0 0 0 73 73h0a73 73 0 0 0 72-73v-855a73 73 0 0 0-72-72z" horiz-adv-x="820" />

<glyph glyph-name="vista_excel" unicode="&#xe82d;" d="M39 43a38 38 0 0 1 4-17 68 68 0 0 0-1 13v622a68 68 0 0 0 2 13 38 38 0 0 1-5-17z m652 559v55a77 77 0 0 1-77 76h-54v31c0 57-37 95-81 84l-432-103c-26-6-47-46-47-88v-614c0-42 21-81 47-88l432-103c44-11 81 27 81 84v31h54a77 77 0 0 1 77 76v111l-38-32v-79a38 38 0 0 0-39-38h-54v690h54a38 38 0 0 0 39-38v-23z m-174-203v-455c0-28-17-47-38-42l-289 65-125 28c-10 2-18 15-21 31a38 38 0 0 0-5 17v614a38 38 0 0 0 5 17c3 16 11 29 21 31l125 28 289 66c21 4 38-15 38-42v-359z m368 0l-136 114-62 51-15 13c-21 20-38 13-38-15v-104h-95v-49h147v97l1-1 62-52 86-72-86-73-62-51-1-1v97h-147v-50h95v-103c0-29 17-35 38-15l15 12 62 51 136 114a25 25 0 0 1 0 37z m-780-381l102 178-93 167 70 10 67-116 74 137 102 14-132-217 147-239-108 22-85 152-74-122z m161 638a99 99 0 0 1-83-95 69 69 0 0 1 83-70 99 99 0 0 1 82 95 69 69 0 0 1-82 70z m0-137a45 45 0 0 0-54 46 65 65 0 0 0 54 62 45 45 0 0 0 54-46 65 65 0 0 0-54-62z m234 108c-45 79-127 125-220 111s-174-83-219-176c-10-23-10-23 0-43 45-79 126-124 219-110s174 83 220 176c10 23 10 23 0 42z m-36-43c-38-75-106-132-184-144a178 178 0 0 0-184 89c-8 16-8 16 0 34 38 75 106 132 184 144s147-25 184-90c8-15 8-15 0-33z" horiz-adv-x="893" />

<glyph glyph-name="todas_peticiones" unicode="&#xe82e;" d="M1038 850h-824c-16 0-38-23-38-52s23-51 38-51h824c16 0 36 23 36 51s-20 52-36 52z m0-149h-824c-16 0-38-24-38-52s23-52 38-52h824c16 0 36 24 36 52s-20 52-36 52z m0-150h-824c-16 0-38-23-38-51s23-52 38-52h824c16 0 36 23 36 52s-20 51-36 51z m-986 299a52 52 0 1 1 51-52 52 52 0 0 1-51 52z m0-149a52 52 0 1 1 51-52 52 52 0 0 1-51 52z m0-150a52 52 0 1 1 51-51 52 52 0 0 1-51 51z m0-149a52 52 0 1 1 51-52 52 52 0 0 1-51 52z m0-150a52 52 0 1 1 51-51 52 52 0 0 1-51 51z m0-149a52 52 0 1 1 51-52 52 52 0 0 1-51 52z m0-150a52 52 0 1 1 51-52 52 52 0 0 1-51 52z m892 345h94c16 0 36 24 36 52s-20 52-36 52h-824c-16 0-38-23-38-52s23-52 38-52h305a367 367 0 0 0 426 0z m122-127a62 62 0 0 1 8 30c0 28-20 51-35 51h-39a469 469 0 0 0 66-81z m-603 81h-249c-16 0-38-23-38-51s23-52 38-52h170a474 474 0 0 0 79 103z m609-216q-10-17-22-33a55 55 0 0 1 22 33z m-709 67h-149c-16 0-38-23-38-52s23-52 38-52h202a494 494 0 0 0-41 65c-9 20-13 29-12 39z m92-150h-241c-16 0-38-23-38-51s23-52 38-52h402a404 404 0 0 0-161 103z m392-103h191c16 0 36 23 36 52s-20 51-36 51h-30a404 404 0 0 0-161-103z m-120 366a117 117 0 1 1 117-117 117 117 0 0 1-117 117z m0-206a88 88 0 1 0 88 88 88 88 0 0 0-88-88z m313 117c-64 124-180 206-313 206s-248-82-312-204c-15-31-15-31 0-61 64-122 180-204 312-204s248 82 312 205c15 29 15 29 1 58z m-29-55c-59-107-164-179-284-179s-225 72-284 179c-13 27-13 27 0 53 59 107 164 179 284 179s226-72 284-180c13-26 13-26 0-52z" horiz-adv-x="1074" />

<glyph glyph-name="peticiones" unicode="&#xe82f;" d="M945 691c0-23-17-43-30-43h-681c-13 0-31 20-31 43s19 43 31 43h681c13 0 30-19 30-43z m-802 0a43 43 0 1 0-43 43 43 43 0 0 0 43-43z m772-183h-681c-13 0-31-19-31-43s19-42 31-42h681c13 0 30 19 30 42s-17 43-30 43z m-772-43a43 43 0 1 0-43 43 43 43 0 0 0 43-43z m772-409h-681c-13 0-31-19-31-42s18-43 31-43h681c13 0 30 19 30 43s-17 42-30 42z m-772-42a43 43 0 1 0-43 42 43 43 0 0 0 43-42z m772 268h-681c-13 0-31-19-31-43s19-42 31-42h681c13 0 30 19 30 42s-17 43-30 43z m-772-43a43 43 0 1 0-43 43 43 43 0 0 0 43-43z" horiz-adv-x="1000" />

<glyph glyph-name="configuracion" unicode="&#xe830;" d="M25 681h198a144 144 0 0 1 283 0h486a25 25 0 0 1 0 50h-486a144 144 0 0 1-283 0h-198a25 25 0 0 1 0-50z m339 118a93 93 0 1 0-93-93 93 93 0 0 0 93 93z m628-779h-588a144 144 0 0 1-283 0h-96a25 25 0 0 1 0-51h96a144 144 0 0 1 283 0h588a25 25 0 0 1 0 51z m-729-119a93 93 0 1 0 93 93 93 93 0 0 0-93-93z m729 474h-96a144 144 0 0 1-283 0h-588a25 25 0 0 1 0-50h588a144 144 0 0 1 283 0h96a25 25 0 0 1 0 50z m-238-118a93 93 0 1 0 94 93 93 93 0 0 0-94-93z" horiz-adv-x="1017" />

<glyph glyph-name="archivar" unicode="&#xe831;" d="M286 802h190v-47h48v47a48 48 0 0 1-48 48h-190a48 48 0 0 1-48-48v-47h48z m61-252a48 48 0 0 1 68 0l170 171c19 19 13 34-14 34h-95v-48h0v24a24 24 0 0 1 24-24h12l-131-131-131 131h12a24 24 0 0 1 2 0l1 0 2 0 1 0 1 1 1 0 1 1 2 0 0 1 2 0 0 1c1 0 1 0 2 1l0 0c1 0 1 1 2 1h0a24 24 0 0 1 7 17v25h-95c-27 0-33-15-14-34z m320-81h-572a95 95 0 0 1-95-95v-429a95 95 0 0 1 95-95h572a95 95 0 0 1 95 95v429a95 95 0 0 1-95 95z m47-524a48 48 0 0 0-47-47h-572a48 48 0 0 0-47 47v429a48 48 0 0 0 47 47h572a48 48 0 0 0 47-47z m-119 381h-428a24 24 0 0 1 0-47h428a24 24 0 0 1 0 47z m-174-159h-80a24 24 0 0 1 0-47h80a24 24 0 0 1 0 47z" horiz-adv-x="762" />

<glyph glyph-name="carpeta" unicode="&#xe832;" d="M505 399c-8 0-14-6-14-12v-12c0-6 6-11 14-11h12v35z m186 75v183a77 77 0 0 1-77 76h-54v31c0 57-37 95-81 84l-432-103c-26-7-47-46-47-88v-614c0-42 21-81 47-88l432-103c44-11 81 27 81 84v31h54a77 77 0 0 1 77 76v223l-38-32v-191a38 38 0 0 0-39-38h-54v690h54a38 38 0 0 0 39-38v-151z m-174-75v-455c0-28-18-47-38-43l-289 66-125 28c-10 2-19 15-22 31a38 38 0 0 0-4 17v614a38 38 0 0 0 4 17c3 16 12 29 22 31l125 28 289 66c20 4 38-15 38-43v-357z m259-17l-85 71-38 32-10 8c-13 13-24 8-24-10v-64h-59v-31l92 0v61l1-1 38-32 54-46-54-45-38-32-1-1v61l-92 0v-31h59v-65c0-17 11-22 24-9l10 8 38 32 85 71a16 16 0 0 1 0 23z" horiz-adv-x="781" />

<glyph glyph-name="calendario" unicode="&#xe833;" d="M593 489h0a56 56 0 0 1 0-111h0a56 56 0 1 1 0 111z m-167-111a56 56 0 1 1-56 55 56 56 0 0 1 56-55z m167-56h0a56 56 0 0 1 0-111h0a56 56 0 1 1 0 111z m55 417h-278v-56h278z m111-528a56 56 0 1 1-55 56 56 56 0 0 1 55-56z m-9 417a28 28 0 0 1 28 28v166a28 28 0 0 1-56 0v-166a28 28 0 0 1 28-28z m9-250a56 56 0 1 1-55 55 56 56 0 0 1 55-55z m-490 250a28 28 0 0 1 27 28v166a28 28 0 0 1-55 0v-166a28 28 0 0 1 28-28z m-10-417a56 56 0 1 1-55 56 56 56 0 0 1 55-56z m648 528h-55v-56h55a56 56 0 0 0 56-55v-667a56 56 0 0 0-56-55h-796a56 56 0 0 0-55 55v667a56 56 0 0 0 55 55h56v56h-56a111 111 0 0 1-111-111v-667a111 111 0 0 1 111-111h796a111 111 0 0 1 112 111v667a111 111 0 0 1-112 111z m-648-361a56 56 0 1 1-55 55 56 56 0 0 1 55-55z m167-334a56 56 0 1 1-56 56 56 56 0 0 1 56-56z m0 167a56 56 0 1 1-56 56 56 56 0 0 1 56-56z m-167-167a56 56 0 1 1-55 56 56 56 0 0 1 55-56z" horiz-adv-x="1019" />

<glyph glyph-name="basura" unicode="&#xe834;" d="M917 725h0z m-25 25h-175v50a50 50 0 0 1-50 50h-417a50 50 0 0 1-50-50v-50h-175a25 25 0 1 1 0-50h25v-750a100 100 0 0 1 100-100h617a100 100 0 0 1 100 100v750h25a25 25 0 1 1 0 50z m-642 50h417v-50h-417z m567-850a50 50 0 0 0-50-50h-617a50 50 0 0 0-50 50v750h717z m-817 775h0z m458-675a25 25 0 0 1 25 25v450a25 25 0 0 1-50 0v-450a25 25 0 0 1 25-25z m-150 0a25 25 0 0 1 25 25v450a25 25 0 0 1-50 0v-450a25 25 0 0 1 25-25z m300 0a25 25 0 0 1 25 25v450a25 25 0 0 1-50 0v-450a25 25 0 0 1 25-25z" horiz-adv-x="917" />

<glyph glyph-name="anadir" unicode="&#xe835;" d="M180 558a22 22 0 0 0 22 23h404a22 22 0 0 0 0-45h-404a22 22 0 0 0-22 22z m201-67h-179a22 22 0 0 1-22-22h0a22 22 0 0 1 22-23h179a22 22 0 0 1 23 23h0a22 22 0 0 1-23 22z m449-414h-67v67a22 22 0 0 1-22 22h0a22 22 0 0 1-23-22v-67h-67a22 22 0 0 1-23-23h0a22 22 0 0 1 23-22h67v-68a22 22 0 0 1 22-22h0a22 22 0 0 1 23 22v68h67a22 22 0 0 1 23 22h0a22 22 0 0 1-23 23z m-628 549h404a22 22 0 1 1 0 45h-404a22 22 0 1 1 0-45z m740-571a205 205 0 0 0-382-102h-470a90 90 0 0 0-90 89v718a90 90 0 0 0 90 90h628a90 90 0 0 0 90-90v-513a205 205 0 0 0 134-192z m-401-58a204 204 0 0 0 222 261v502a45 45 0 0 1-45 45h-628a45 45 0 0 1-45-45v-718a45 45 0 0 1 45-45z m361 58a164 164 0 1 1-164-165 164 164 0 0 1 164 165z" horiz-adv-x="942" />

<glyph glyph-name="alerta" unicode="&#xe836;" d="M1045 34l-408 738c-57 104-148 104-204-1l-409-737c-56-100-10-185 102-184h817c113 0 158 83 102 184z m-90-131h-840c-56 0-79 40-50 90l418 767c29 50 75 50 103 0l419-767c28-50 6-90-50-90z m-406 189h-37a38 38 0 0 1-28-12 40 40 0 0 1-12-28v-33a39 39 0 0 1 39-39h39a39 39 0 0 1 39 39v34a37 37 0 0 1-12 27 39 39 0 0 1-28 12z m2 502h-39a39 39 0 0 1-28-11 34 34 0 0 1-11-28l19-302a42 42 0 0 1 12-27 37 37 0 0 1 28-12 36 36 0 0 1 26 11 43 43 0 0 1 13 28l18 301a36 36 0 0 1-10 28 38 38 0 0 1-28 12z" horiz-adv-x="1069" />

<glyph glyph-name="facturacion_auto" unicode="&#xe837;" d="M388-150a181 181 0 0 0-18 1l-11 1a6 6 0 0 0-5 4l-14 38a6 6 0 0 1-3 4l-5 2a6 6 0 0 1-5 0l-37-17a6 6 0 0 0-6 0l-8 7a187 187 0 0 0-27 27l-7 8a6 6 0 0 0 0 6l17 37a6 6 0 0 1 0 5q-1 2-2 5a6 6 0 0 1-4 4l-38 13a6 6 0 0 0-4 5l-1 11a181 181 0 0 0 0 37l1 11a6 6 0 0 0 4 5l38 13a6 6 0 0 1 4 4q1 3 2 5a6 6 0 0 1 0 5l-17 36a6 6 0 0 0 0 7l7 8a187 187 0 0 0 27 27l8 6a6 6 0 0 0 6 1l37-17a6 6 0 0 1 5 0l5 2a6 6 0 0 1 3 4l14 38a6 6 0 0 0 5 4l10 1a188 188 0 0 0 39 0l10-1a6 6 0 0 0 5-4l13-38a6 6 0 0 1 4-4l5-2a6 6 0 0 1 5 0l37 17a6 6 0 0 0 6-1l8-6a187 187 0 0 0 27-27l6-8a6 6 0 0 0 1-7l-17-36a6 6 0 0 1 0-5q1-3 2-5a6 6 0 0 1 4-4l38-13a6 6 0 0 0 4-5l1-11a182 182 0 0 0 0-37l-1-11a6 6 0 0 0-4-5l-38-14a6 6 0 0 1-4-3q-1-3-2-5a6 6 0 0 1 0-5l17-37a6 6 0 0 0-1-6l-6-8a187 187 0 0 0-27-27l-8-7a6 6 0 0 0-6 0l-37 17a6 6 0 0 1-5 0l-5-2a6 6 0 0 1-4-4l-13-38a6 6 0 0 0-5-4l-11-1a181 181 0 0 0-19-1z m-54 101l6-4a101 101 0 0 1 24-10l8-2a6 6 0 0 0 4-4l6-18a6 6 0 0 1 12 0l7 18a6 6 0 0 0 4 4l8 2a101 101 0 0 1 23 10l7 4a6 6 0 0 0 6 0l18-8a6 6 0 0 1 8 8l-9 18a6 6 0 0 0 1 5l4 8a94 94 0 0 1 9 22l3 9a6 6 0 0 0 3 4l19 7a6 6 0 0 1 0 11l-19 7a6 6 0 0 0-3 4l-3 9a95 95 0 0 1-9 22l-4 7a6 6 0 0 0-1 6l9 18a6 6 0 0 1-9 8l-17-8a6 6 0 0 0-6 0l-8 4a95 95 0 0 1-22 9l-8 3a6 6 0 0 0-4 4l-7 18a6 6 0 0 1-12 0l-6-19a6 6 0 0 0-4-3l-9-3a95 95 0 0 1-22-9l-8-4a6 6 0 0 0-5 0l-18 8a6 6 0 0 1-8-8l8-18a6 6 0 0 0 0-6l-4-7a95 95 0 0 1-9-23l-3-8a6 6 0 0 0-3-4l-19-7a6 6 0 0 1 0-12l19-6a6 6 0 0 0 3-4l3-9a95 95 0 0 1 9-22l4-8a6 6 0 0 0 0-5l-8-18a6 6 0 0 1 8-8l18 8a6 6 0 0 0 6 0z m285 703h-283c-10 0-17-11-17-24s7-25 17-25h283c10 0 18 11 18 25s-8 24-18 24z m-105-98h-175c-8 0-15-11-15-24h0c0-14 7-25 15-25h175c8 0 15 11 15 25h0c0 13-7 24-15 24z m-98-98h-196a25 25 0 1 1 0-49h196a25 25 0 0 1 0 49z m368-441a49 49 0 0 0-49-49h-147v-49h147a98 98 0 0 1 98 98v41h-49z m-686-49a49 49 0 0 0-49 49v735a49 49 0 0 0 49 49h637a49 49 0 0 0 49-49v-208h49v208a98 98 0 0 1-98 98h-637a98 98 0 0 1-98-98v-735a98 98 0 0 1 98-98h89v49z m614 108l-35 41a8 8 0 0 1-6 3q-7 0-14 0a8 8 0 0 1-6-2l-37-39a8 8 0 0 0-8-2l-11 3a221 221 0 0 0-42 19l-9 6a8 8 0 0 0-4 7l4 53a8 8 0 0 1-2 6q-5 5-10 11a8 8 0 0 1-6 2l-53-1a8 8 0 0 0-7 4l-5 9a234 234 0 0 0-17 45l-2 10a8 8 0 0 0 2 7l41 35a8 8 0 0 1 3 6q0 7 0 14a8 8 0 0 1-2 6l-39 37a8 8 0 0 0-2 8l4 11a221 221 0 0 0 19 41l5 10a8 8 0 0 0 7 4l54-5a8 8 0 0 1 6 3q5 5 10 10a8 8 0 0 1 3 5l-1 54a8 8 0 0 0 4 7l8 4a235 235 0 0 0 46 18l9 2a8 8 0 0 0 8-2l34-41a7 7 0 0 1 6-3c5 0 10 0 15 0a8 8 0 0 1 6 2l37 39a8 8 0 0 0 7 2l11-4a221 221 0 0 0 42-18l9-6a8 8 0 0 0 4-7l-4-54a8 8 0 0 1 2-5q5-5 10-11a8 8 0 0 1 6-2l53 1a8 8 0 0 0 7-4l5-9a235 235 0 0 0 17-45l2-10a8 8 0 0 0-2-7l-41-35a8 8 0 0 1-3-6q0-7 0-14a8 8 0 0 1 2-6l39-37a8 8 0 0 0 2-8l-3-11a221 221 0 0 0-19-41l-6-10a8 8 0 0 0-7-4l-53 4a8 8 0 0 1-6-2q-5-5-11-10a8 8 0 0 1-2-5l1-54a8 8 0 0 0-4-7l-9-4a235 235 0 0 0-45-18l-9-2a8 8 0 0 0-8 2z m-15 88l30-35a7 7 0 0 1 9-2h0a7 7 0 0 1 4 7l-1 46a8 8 0 0 0 3 7l7 4a134 134 0 0 1 25 24l5 6a8 8 0 0 0 6 3l47-4a7 7 0 0 1 7 4l0 0a7 7 0 0 1-1 9l-34 32a8 8 0 0 0-2 7l1 8a135 135 0 0 1 1 34l-1 8a8 8 0 0 0 3 6l35 31a7 7 0 0 1 2 8h0a8 8 0 0 1-7 5l-46-1a8 8 0 0 0-7 3l-4 7a135 135 0 0 1-24 24l-6 5a8 8 0 0 0-3 7l4 47a7 7 0 0 1-4 7l0 0a7 7 0 0 1-9-2l-32-34a8 8 0 0 0-7-2l-8 1a135 135 0 0 1-34 1l-8 0a8 8 0 0 0-6 2l-31 36a7 7 0 0 1-8 2h0a7 7 0 0 1-5-7l1-47a8 8 0 0 0-3-6l-7-5a135 135 0 0 1-24-23l-6-6a8 8 0 0 0-6-3l-47 4a8 8 0 0 1-7-5h0a7 7 0 0 1 2-8l33-32a8 8 0 0 0 3-7l-2-8a135 135 0 0 1-1-34l1-8a8 8 0 0 0-2-7l-36-30a7 7 0 0 1-2-8h0a8 8 0 0 1 7-5l47 1a8 8 0 0 0 6-3l5-7a134 134 0 0 1 23-25l7-5a8 8 0 0 0 2-6l-4-47a7 7 0 0 1 5-7h0a8 8 0 0 1 8 1l33 34a8 8 0 0 0 6 2l8-1a135 135 0 0 1 34-1l8 1a8 8 0 0 0 7-3z m-309-199a64 64 0 1 0 65 64 64 64 0 0 0-65-64z m0 83a19 19 0 1 1 19-19 19 19 0 0 1-19 19z m281 148a105 105 0 1 0 105 105 105 105 0 0 0-105-105z m0 164a59 59 0 1 1 59-59 59 59 0 0 1-59 59z m-412 382l-8-41q-13 12-37 12a50 50 0 0 1-40-17 58 58 0 0 1-12-25h82l-5-23h-80q0-3 0-9t0-11h76l-5-23h-68a59 59 0 0 1 12-25 49 49 0 0 1 39-18q28 0 45 18v-46a100 100 0 0 0-45-9q-43 0-72 29a101 101 0 0 0-25 51h-22l5 23h14q0 4 0 8 0 7 1 12h-20l5 23h17a102 102 0 0 0 25 50q29 30 75 30a98 98 0 0 0 43-9z" horiz-adv-x="897" />

<glyph glyph-name="facturacion" unicode="&#xe838;" d="M718 534h-348a23 23 0 0 1-23-22v-4a27 27 0 0 1 27-26h343a26 26 0 0 1 26 25v3a25 25 0 0 1-25 24z m85 316h-711a92 92 0 0 1-92-92v-816a92 92 0 0 1 92-92h711a92 92 0 0 1 92 92v816a92 92 0 0 1-92 92z m39-895a53 53 0 0 0-52-52h-698a39 39 0 0 0-39 39v816a39 39 0 0 0 39 39h698a53 53 0 0 0 52-52m-120-105h-357c-13 0-23-12-23-27s10-26 23-26h357c12 0 22 12 22 26s-10 27-22 27z m-3-211h-559a22 22 0 0 1-22-22v-8a22 22 0 0 1 22-23h559a22 22 0 0 1 22 22v9a22 22 0 0 1-22 22z m-1-112h-556a24 24 0 0 1-23-23v-6a24 24 0 0 1 23-24h556a24 24 0 0 1 24 24v5a24 24 0 0 1-24 24z m-442 417l-9-45q-14 14-40 14a53 53 0 0 1-42-19 62 62 0 0 1-13-26h88l-5-25h-87q0-4 0-10t1-11h82l-5-25h-74a63 63 0 0 1 12-27 52 52 0 0 1 42-19q31 0 49 19v-49a107 107 0 0 0-48-11q-47 0-77 32a109 109 0 0 0-27 55h-24l5 25h16q0 4 0 8 0 7 0 13h-21l5 25h19a110 110 0 0 0 27 53q30 33 79 33a105 105 0 0 0 47-10z" horiz-adv-x="895" />

<glyph glyph-name="acceso" unicode="&#xe839;" d="M376 400h-156a22 22 0 0 1-22-22v-6a22 22 0 0 1 22-22h156a22 22 0 0 1 22 22v6a22 22 0 0 1-22 22z m0-100h-156a22 22 0 0 1-22-22v-7a22 22 0 0 1 22-21h156a22 22 0 0 1 22 22v6a22 22 0 0 1-22 22z m349-50a150 150 0 1 1-3 0 250 250 0 0 1-244-200h52a200 200 0 0 0 387 0h51a250 250 0 0 1-243 200z m-2 50a100 100 0 1 0 101 100 100 100 0 0 0-101-100z m277 450h-400v50a50 50 0 0 1-50 50h-50a50 50 0 0 1-50-50v-50h-350a100 100 0 0 1-100-100v-700a100 100 0 0 1 100-100h900a100 100 0 0 1 100 100v700a100 100 0 0 1-100 100z m-500 50h50v-100h-50z m550-850a50 50 0 0 0-50-50h-900a50 50 0 0 0-50 50v700a50 50 0 0 0 50 50h300v50h50v-50a50 50 0 0 1 50-50h50a50 50 0 0 1 50 50v50h50v-50h350a50 50 0 0 0 50-50z m-674 550h-156a22 22 0 0 1-22-22v-6a22 22 0 0 1 22-22h156a22 22 0 0 1 22 22v6a22 22 0 0 1-22 22z" horiz-adv-x="1100" />

<glyph glyph-name="activo" unicode="&#xe83a;" d="M365-65h21v390h-21z m81 0h8v390h-8z m-48 0h30v390h-30z m-64 0h9v390h-9z m666 860h-199a111 111 0 0 1-151 40l-70-40h-469a111 111 0 0 1-111-111v-723a111 111 0 0 1 111-111h889a111 111 0 0 1 111 111v723a111 111 0 0 1-111 111z m-86 0c-34-1-33-56 1-56h-82l-32 56 0 0z m-236-8a56 56 0 0 0 75-21l80-138h-429z m-98 8l-96-56h-180a13 13 0 0 1 12 7c15 31-13 48-28 49z m476-834a56 56 0 0 0-56-55h-889a56 56 0 0 0-55 55v723a56 56 0 0 0 55 55h373l-191-111h-104a23 23 0 0 1-22-23v-10a23 23 0 0 1 22-23h733a23 23 0 0 1 23 23v10a23 23 0 0 1-23 23h-25l-64 111h167a56 56 0 0 0 55-56z m-765-26h21v390h-21z m-31 0h9v390h-9z m483 0h8v390h-8z m-81 0h21v390h-21z m-31 0h9v390h-9z m-9 587h-93c-15 0-24-8-24-23v-72c0-15 9-21 24-21h93c15 0 28 7 28 22v74c0 15-12 20-28 20z m77-587h21v390h-21z m-113 0h25v390h-25z m-73 0h22v390h-22z m-45 0h38v390h-38z m85 0h17v390h-17z m214 0h34v390h-34z" horiz-adv-x="1111" />

<glyph glyph-name="logo_som" unicode="&#xe83b;" d="M959 520a16 16 0 1 0 16-16 16 16 0 0 0-16 16z m29 0a14 14 0 1 1-13-14 14 14 0 0 1 13 14z m-22 0a8 8 0 0 0 9 9 9 9 0 0 0 7-3l-3-3a6 6 0 0 1-4 2 5 5 0 0 1 0-10 6 6 0 0 1 4 2l3-3a8 8 0 0 0-7-3 8 8 0 0 0-9 9z m14-55a136 136 0 0 1-27 42 131 131 0 0 1-41 29 123 123 0 0 1-51 11 124 124 0 0 1-57-14 132 132 0 0 1-19-12 135 135 0 0 1-18 12 123 123 0 0 1-57 14 124 124 0 0 1-51-11 128 128 0 0 1-41-29 135 135 0 0 1-15-19v59h-179a177 177 0 0 1-132-60v60h-165a112 112 0 0 1-46-10 118 118 0 0 1-37-25 124 124 0 0 1-25-133 118 118 0 0 1 62-64 112 112 0 0 1 46-10h24a8 8 0 0 0 4 0 6 6 0 0 0 2-2 14 14 0 0 0 2-4 8 8 0 0 0 0-5 13 13 0 0 0-2-4 6 6 0 0 0-2-2 8 8 0 0 0-4 0h-141v-112h141a112 112 0 0 1 46 9 117 117 0 0 1 37 26 123 123 0 0 1 32 62c30-58 89-97 157-97 68 0 127 38 157 95v-95h108v237a23 23 0 0 0 2 8 19 19 0 0 0 4 7 27 27 0 0 0 8 5 20 20 0 0 0 16 0 27 27 0 0 0 8-5 20 20 0 0 0 4-7 23 23 0 0 0 2-8v-237h108v237a23 23 0 0 0 1 8 20 20 0 0 0 5 7 27 27 0 0 0 8 5 19 19 0 0 0 7 2 17 17 0 0 0 8-1 28 28 0 0 0 8-6 20 20 0 0 0 4-7 23 23 0 0 0 2-8v-237h108v237a135 135 0 0 1-11 52z m-736-95a120 120 0 0 1-10 12 116 116 0 0 1-37 26 112 112 0 0 1-46 9h-24a8 8 0 0 0-3 1 8 8 0 0 0-3 2 9 9 0 0 0-2 3 8 8 0 0 0-1 3 9 9 0 0 0 1 4 9 9 0 0 0 2 2 8 8 0 0 0 2 2 8 8 0 0 0 4 1h132a190 190 0 0 1-15-65z m253-9a74 74 0 1 0-73 74h73z" horiz-adv-x="1000" />
</font>
</defs>
</svg>
